<?xml version="1.0" encoding="UTF-8" standalone="no"?>
<!DOCTYPE svg PUBLIC "-//W3C//DTD SVG 1.1//EN" "http://www.w3.org/Graphics/SVG/1.1/DTD/svg11.dtd">
<svg xmlns:dc="http://purl.org/dc/elements/1.1/" xmlns:xl="http://www.w3.org/1999/xlink" version="1.1" xmlns="http://www.w3.org/2000/svg" viewBox="0 0 306 72" width="306" height="72">
  <defs/>
  <metadata> Produced by OmniGraffle 7.8.1 
    <dc:date>2018-07-31 23:40:49 +0000</dc:date>
  </metadata>
  <g id="Canvas_1" fill-opacity="1" stroke-dasharray="none" stroke="none" stroke-opacity="1" fill="none">
    <title>Canvas 1</title>
    <g id="Canvas_1: Layer 1">
      <title>Layer 1</title>
      <g id="Group_9">
        <g id="Graphic_16">
          <path d="M 89 4.5 L 94.45977 4.5 L 118.6329 62.20695 L 118.80695 62.20695 L 142.71899 4.5 L 148.1777 4.5 L 148.1777 66.45945 L 144.3652 66.45945 L 144.3652 9.18615 L 144.1922 9.18615 L 120.62408 66.45945 L 116.81262 66.45945 L 92.98551 9.18615 L 92.8125 9.18615 L 92.8125 66.45945 L 89 66.45945 Z" fill="#77913b"/>
        </g>
        <g id="Graphic_15">
          <path d="M 159.70016 44.5911 L 159.70016 45.11295 C 159.70016 47.7159 160.04722 50.2044 160.74346 52.57425 C 161.4376 54.94725 162.46517 57.03045 163.82513 58.8228 C 165.18614 60.6162 166.89631 62.03475 168.95355 63.0753 C 171.00765 64.1169 173.39623 64.6377 176.11825 64.6377 C 180.5798 64.6377 184.1113 63.46485 186.71693 61.12125 C 189.32466 58.77975 191.11872 55.5237 192.10435 51.35835 L 195.39783 51.35835 C 194.4143 56.5674 192.291 60.55845 189.03002 63.3357 C 185.76485 66.114 181.448 67.5 176.07526 67.5 C 172.78388 67.5 169.90878 66.90675 167.45623 65.7234 C 164.9995 64.5369 162.9496 62.9178 161.30338 60.8619 C 159.65612 58.81125 158.42827 56.3784 157.6209 53.57385 C 156.81142 50.7693 156.40773 47.74635 156.40773 44.50395 C 156.40773 41.38125 156.8261 38.3877 157.66388 35.52435 C 158.49957 32.65995 159.75573 30.1431 161.4334 27.97485 C 163.10897 25.80555 165.20186 24.0699 167.71417 22.7679 C 170.22649 21.4659 173.18757 20.81595 176.59639 20.81595 C 179.71476 20.81595 182.47243 21.3945 184.8715 22.5516 C 187.26637 23.70975 189.27538 25.28475 190.89223 27.2808 C 192.50804 29.27685 193.73693 31.59 194.57577 34.2234 C 195.41146 36.8568 195.83192 39.6771 195.83192 42.6843 C 195.83192 42.97305 195.8162 43.3059 195.78788 43.6818 C 195.75852 44.0598 195.7449 44.36115 195.7449 44.59215 L 159.70016 44.59215 Z M 192.45142 41.7267 C 192.33503 39.29805 191.93134 36.99855 191.23616 34.82925 C 190.53992 32.65995 189.5113 30.75 188.15134 29.1015 C 186.79138 27.453 185.14097 26.13735 183.20012 25.1535 C 181.25926 24.16965 179.04369 23.67825 176.55235 23.67825 C 173.88905 23.67825 171.54346 24.1854 169.51767 25.19655 C 167.48769 26.20875 165.7817 27.5391 164.38924 29.18865 C 163.00202 30.83715 161.92936 32.7618 161.17755 34.95945 C 160.4247 37.16025 159.9602 39.41565 159.78718 41.72775 L 192.45142 41.72775 Z" fill="#77913b"/>
        </g>
        <g id="Graphic_14">
          <path d="M 206.74726 31.74855 L 207.00835 31.74855 C 207.411 30.30375 208.14707 28.94295 209.21658 27.67035 C 210.28505 26.3988 211.58524 25.29945 213.11612 24.3723 C 214.64594 23.4483 216.34983 22.7385 218.22882 22.24605 C 220.10466 21.7557 222.0539 21.53835 224.07654 21.59505 L 224.07654 24.8931 C 222.34435 24.6621 220.36365 24.8364 218.14179 25.4139 C 215.91783 25.9935 213.79452 27.2661 211.77398 29.23275 C 210.9645 30.10005 210.25779 30.939 209.65173 31.74855 C 209.04462 32.55915 208.53817 33.4548 208.13449 34.43865 C 207.72975 35.42355 207.41204 36.5208 207.18136 37.73565 C 206.94963 38.9526 206.80493 40.3974 206.7483 42.0753 L 206.7483 66.4605 L 203.45588 66.4605 L 203.45588 21.85545 L 206.7483 21.85545 L 206.7483 31.74855 Z" fill="#77913b"/>
        </g>
        <g id="Graphic_13">
          <path d="M 230.8344 31.74855 L 231.09445 31.74855 C 231.4971 30.30375 232.2342 28.94295 233.30268 27.67035 C 234.3722 26.3988 235.67134 25.29945 237.20326 24.3723 C 238.7331 23.4483 240.43697 22.7385 242.3149 22.24605 C 244.19076 21.7557 246.14 21.53835 248.16264 21.59505 L 248.16264 24.8931 C 246.43045 24.6621 244.4508 24.8364 242.22788 25.4139 C 240.00392 25.9935 237.88062 27.2661 235.86113 29.23275 C 235.0506 30.10005 234.34493 30.939 233.73783 31.74855 C 233.13177 32.55915 232.62427 33.4548 232.22163 34.43865 C 231.8169 35.42355 231.49814 36.5208 231.2685 37.73565 C 231.03678 38.9526 230.89208 40.3974 230.83546 42.0753 L 230.83546 66.4605 L 227.54303 66.4605 L 227.54303 21.85545 L 230.83546 21.85545 L 230.83546 31.74855 Z" fill="#77913b"/>
        </g>
        <g id="Graphic_12">
          <path d="M 252.4103 13.4376 L 252.4103 4.5 L 255.70167 4.5 L 255.70167 13.4376 Z M 252.4103 66.45945 L 252.4103 21.85545 L 255.70167 21.85545 L 255.70167 66.4584 L 252.4103 66.4584 Z" fill="#77913b"/>
        </g>
        <g id="Graphic_11">
          <path d="M 282.56117 24.7188 L 272.8569 24.7188 L 272.8569 55.8723 C 272.8569 57.66675 273.0582 59.08425 273.46295 60.1248 C 273.86664 61.16535 274.48843 61.9602 275.32517 62.50935 C 276.16295 63.06165 277.17375 63.3924 278.3586 63.50685 C 279.54136 63.62445 280.91495 63.6528 282.47414 63.594 L 282.47414 66.4584 C 280.7975 66.57285 279.16808 66.55815 277.57953 66.41535 C 275.9889 66.2715 274.58804 65.8368 273.37592 65.11335 C 272.1638 64.392 271.196 63.30525 270.4725 61.86045 C 269.7511 60.41355 269.44703 58.41855 269.56447 55.8723 L 269.56447 24.7188 L 261.33235 24.7188 L 261.33235 21.85545 L 269.56447 21.85545 L 269.56447 7.9713 L 272.8569 7.9713 L 272.8569 21.85545 L 282.56117 21.85545 Z" fill="#77913b"/>
        </g>
        <g id="Graphic_10">
          <path d="M 305 24.7188 L 295.29678 24.7188 L 295.29678 55.8723 C 295.29678 57.66675 295.4981 59.08425 295.90283 60.1248 C 296.30652 61.16535 296.9283 61.9602 297.764 62.50935 C 298.6018 63.06165 299.61363 63.3924 300.7985 63.50685 C 301.9823 63.62445 303.35483 63.6528 304.91402 63.594 L 304.91402 66.4584 C 303.23845 66.57285 301.6069 66.55815 300.01837 66.41535 C 298.42878 66.2715 297.02897 65.8368 295.8158 65.11335 C 294.60264 64.392 293.63483 63.30525 292.9124 61.86045 C 292.18994 60.41355 291.88586 58.41855 292.0033 55.8723 L 292.0033 24.7188 L 283.77223 24.7188 L 283.77223 21.85545 L 292.0033 21.85545 L 292.0033 7.9713 L 295.29678 7.9713 L 295.29678 21.85545 L 305 21.85545 Z" fill="#77913b"/>
        </g>
      </g>
      <g id="Group_22">
        <g id="Graphic_21">
          <path d="M 49.38981 67.37092 C 49.37644 67.2565 48.973245 61.23229 46.20436 54.245276 C 43.420046 47.25208 39.50843 43.227693 39.397345 43.11121 C 38.752437 42.44941 37.897703 42.11542 37.05531 42.10408 L 37.05531 42.10202 L 37.0368 42.10202 L 37.0368 42.10408 C 36.194407 42.11542 35.336587 42.44941 34.695794 43.11121 C 34.586766 43.227693 30.67412 47.25208 27.88878 54.245276 C 25.116807 61.23229 24.71567 67.2565 24.70127 67.37092 L 24.682755 68.1358 L 24.682755 68.16157 L 24.69304 68.15539 C 24.74241 71.96639 30.83149 72.12514 30.95492 67.55235 L 30.96829 67.34618 L 31.02383 66.44935 C 31.02383 66.44626 31.093774 65.30925 31.409542 63.508375 C 31.72428 61.70029 32.280733 59.28607 33.21775 56.92751 C 34.15477 54.57308 35.294416 52.69696 36.19338 51.433154 C 36.51429 50.97134 37.57268 50.97134 37.896675 51.433154 C 38.79255 52.69799 39.93117 54.57308 40.8723 56.92751 C 41.80932 59.28607 42.36783 61.70029 42.68051 63.508375 C 42.99525 65.308216 43.062107 66.44626 43.062107 66.44935 L 43.13102 67.55235 C 43.262676 72.12514 49.34867 71.96639 49.39701 68.15539 L 49.40524 68.16157 L 49.40524 68.1358 L 49.38981 67.37092" fill="#f68d2e"/>
        </g>
        <g id="Graphic_20">
          <path d="M 70.35805 33.535767 C 70.24388 33.51309 64.49011 32.042084 57.09579 32.563688 C 49.69941 33.0956 44.727347 35.638674 44.58129 35.7098 C 43.76667 36.12832 43.18862 36.853 42.920165 37.660144 L 42.920165 37.658083 C 42.920165 37.660144 42.920165 37.66839 42.91708 37.675607 C 42.91708 37.675607 42.912966 37.67973 42.911937 37.686946 L 42.91605 37.686946 C 42.664054 38.499245 42.70931 39.42906 43.13205 40.25579 C 43.21022 40.399078 45.758993 45.4275 51.44076 50.28377 C 57.11636 55.119426 62.623275 57.371804 62.72819 57.42438 L 63.43995 57.67384 L 63.44921 57.67384 L 63.45024 57.67384 L 63.46464 57.680024 L 63.46052 57.67384 C 67.04094 58.8057 69.069265 52.95982 64.83468 51.42491 L 64.645426 51.35172 L 63.82258 51.017726 C 63.82155 51.017726 62.77962 50.60024 61.18843 49.73743 C 59.594164 48.87874 57.5103 47.590194 55.59718 45.953226 C 53.67994 44.32038 52.282125 42.640117 51.37802 41.380434 C 51.04168 40.926866 51.36979 39.901183 51.90156 39.732126 C 53.361086 39.250725 55.470664 38.730153 57.96184 38.55388 C 60.45507 38.37142 62.887615 38.57965 64.6732 38.832206 C 66.45261 39.089915 67.54391 39.371333 67.54391 39.371333 L 68.39967 39.595025 L 68.59716 39.64966 C 72.906826 40.935113 74.644065 34.998524 71.09142 33.77286 L 71.09862 33.768736 L 71.085245 33.764612 L 71.0801 33.764612 L 71.078045 33.76255 L 70.35805 33.535767" fill="#f68d2e"/>
        </g>
        <g id="Graphic_19">
          <path d="M 45.200485 2.7993085 C 45.141857 2.903423 41.990347 8.017404 40.18831 15.325005 C 38.4017 22.646008 39.24409 28.24036 39.26569 28.40323 C 39.40146 29.323768 39.90134 30.10308 40.57299 30.613345 C 40.577104 30.616437 40.584304 30.616437 40.58636 30.62159 C 40.590475 30.623653 40.590475 30.626746 40.597675 30.627776 L 40.597675 30.626746 C 41.278582 31.121547 42.16726 31.364825 43.06725 31.20917 C 43.226677 31.18443 48.71919 30.266984 55.00987 26.274553 C 61.28923 22.275937 65.095935 17.645419 65.17616 17.55986 L 65.6277 16.949604 L 65.631815 16.94445 L 65.63593 16.94445 L 65.6421 16.927956 L 65.63593 16.93105 C 67.796936 13.81483 62.959615 10.048152 60.21747 13.671543 L 60.0889 13.832354 L 59.52628 14.524045 C 59.52422 14.524045 58.80937 15.403349 57.51133 16.675401 C 56.21637 17.948485 54.37216 19.566898 52.246126 20.916264 C 50.12729 22.260475 48.123654 23.094422 46.665155 23.58407 C 46.13956 23.760342 45.28174 23.12947 45.285855 22.565602 C 45.294084 21.003885 45.450425 18.80511 46.059333 16.343472 C 46.658984 13.873587 47.602174 11.587191 48.39211 9.937853 C 49.18513 8.291607 49.78478 7.328805 49.78581 7.327774 L 50.25792 6.570109 L 50.366945 6.393836 C 52.903376 2.6168504 47.89017 -.8910869 45.64585 2.1622515 L 45.64585 2.152974 L 45.635566 2.1632823 L 45.635566 2.1694673 L 45.629394 2.1725598 L 45.200485 2.7993085" fill="#77913b"/>
        </g>
        <g id="Graphic_18">
          <path d="M 8.685549 17.636141 C 8.76372 17.723762 12.570423 22.355312 18.8467 26.353927 C 25.14355 30.345327 30.63298 31.25865 30.792406 31.290604 C 31.691368 31.441107 32.580044 31.195767 33.26095 30.70715 L 33.264037 30.710243 C 33.26815 30.70612 33.26918 30.701997 33.273294 30.696842 C 33.27638 30.69375 33.278437 30.69375 33.281523 30.69272 L 33.281523 30.687565 C 33.958316 30.180393 34.45614 29.40005 34.58985 28.480543 C 34.61145 28.31561 35.453843 22.72332 33.66826 15.400256 C 31.86828 8.093686 28.71677 2.9807358 28.657113 2.877652 L 28.226147 2.2498726 L 28.225118 2.2447184 C 28.225118 2.2447184 28.222032 2.2436876 28.222032 2.240595 L 28.21689 2.2292558 L 28.21586 2.2364717 C 25.967427 -.81995915 20.95525 2.6982865 23.49168 6.4680564 L 23.601737 6.646391 L 24.072818 7.4019944 C 24.072818 7.406118 24.674526 8.368919 25.462404 10.012073 C 26.25234 11.661412 27.2017 13.94987 27.803408 16.416661 C 28.40306 18.882423 28.5666 21.078105 28.571743 22.641884 C 28.576886 23.210906 27.720095 23.837655 27.192443 23.66035 C 25.736 23.170704 23.731336 22.338818 21.6125 20.990484 C 19.489552 19.645242 17.642256 18.024767 16.343184 16.751683 C 15.050283 15.483754 14.334405 14.601358 14.334405 14.601358 L 13.771782 13.905543 L 13.641155 13.749887 C 10.894898 10.129588 6.061691 13.892142 8.222697 17.009393 L 8.218583 17.0063 L 8.222697 17.020732 L 8.22784 17.020732 L 8.234011 17.028978 L 8.685549 17.636141" fill="#f68d2e"/>
        </g>
        <g id="Graphic_17">
          <path d="M 11.274437 57.54189 C 11.380379 57.49344 16.886264 55.243126 22.564948 50.40541 C 28.24466 45.54914 30.792406 40.520716 30.86749 40.37743 C 31.29537 39.55276 31.33857 38.618823 31.087603 37.81271 L 31.09069 37.81271 C 31.09069 37.80137 31.086574 37.80137 31.08246 37.794153 C 31.079374 37.785906 31.08246 37.785906 31.079374 37.77869 L 31.077317 37.77869 C 30.812977 36.970515 30.23801 36.245836 29.41619 35.83144 C 29.272193 35.75928 24.30013 33.2193 16.904778 32.685326 C 9.511484 32.168877 3.757715 33.63988 3.644573 33.660498 L 2.925609 33.88419 L 2.9184092 33.88625 L 2.914295 33.88625 L 2.897838 33.890375 L 2.9081236 33.89656 C -.6445252 35.11913 1.0937424 41.058813 5.405469 39.768205 L 5.601924 39.718725 L 6.456658 39.495034 C 6.459744 39.495034 7.54899 39.20743 9.329428 38.95797 C 11.11501 38.70438 13.543442 38.49409 16.039759 38.672426 C 18.531961 38.84973 20.638454 39.37752 22.10004 39.851703 C 22.629747 40.02282 22.952716 41.050566 22.625633 41.505165 C 21.718443 42.75763 20.320629 44.44511 18.402363 46.077957 C 16.490268 47.714926 14.403319 49.00038 12.812135 49.86422 C 11.224037 50.719815 10.176962 51.138334 10.176962 51.138334 L 9.355142 51.472325 L 9.164859 51.547577 C 4.935417 53.086616 6.958596 58.926306 10.541073 57.79651 L 10.536959 57.802694 L 10.556501 57.79651 L 10.562673 57.791355 L 11.274437 57.54189" fill="#f68d2e"/>
        </g>
      </g>
    </g>
  </g>
</svg>
