<?xml version="1.0" encoding="UTF-8" standalone="no"?>
<!DOCTYPE svg PUBLIC "-//W3C//DTD SVG 1.1//EN" "http://www.w3.org/Graphics/SVG/1.1/DTD/svg11.dtd">
<svg xmlns:dc="http://purl.org/dc/elements/1.1/" xmlns:xl="http://www.w3.org/1999/xlink" version="1.1" xmlns="http://www.w3.org/2000/svg" viewBox="0 0 372 216" width="372" height="216">
  <defs/>
  <metadata> Produced by OmniGraffle 7.8.1 
    <dc:date>2018-08-02 18:47:37 +0000</dc:date>
  </metadata>
  <g id="Canvas_1" fill-opacity="1" stroke-dasharray="none" stroke="none" stroke-opacity="1" fill="none">
    <title>Canvas 1</title>
    <g id="Canvas_1: Layer 1">
      <title>Layer 1</title>
      <g id="Group_2">
        <title>Canvas_1</title>
        <g id="Group_3">
          <title>Canvas_1: Layer 1</title>
          <g id="Group_46">
            <title>Graphic_2</title>
            <g id="Graphic_47">
              <path d="M 43.7305 58.3145 L 43.7305 40.0135 L 48.9145 40.0135 L 48.9145 57.7245 C 48.9145 64.2855 51.3635 66.9045 56.9685 66.9045 C 62.2755 66.9045 64.6585 63.8125 64.6585 58.2675 L 64.6585 40.0175 L 69.4395 40.0175 L 69.4395 57.8495 C 69.4395 66.0195 65.3805 71.2075 56.7875 71.2075 C 47.7855 71.1995 43.7305 66.1325 43.7305 58.3145 Z" fill="#595a58"/>
            </g>
          </g>
          <g id="Group_44">
            <title>Graphic_3</title>
            <g id="Graphic_45">
              <path d="M 80.9966 40.0137 L 86.1856 40.0137 L 99.7236 58.5507 C 101.4536 60.9977 102.8226 63.6287 102.8816 63.6287 L 103.0026 63.6287 C 102.7646 61.2327 102.7646 58.9157 102.7646 58.9157 L 102.7646 40.0137 L 107.4166 40.0137 L 107.4166 70.6567 L 102.7646 70.6567 L 88.3946 50.9787 C 86.9636 48.8987 85.6466 46.4547 85.6466 46.4547 L 85.5886 46.4547 C 85.7676 48.4807 85.7676 50.3927 85.7676 50.3927 L 85.7676 70.6597 L 81.0006 70.6597 Z" fill="#595a58"/>
            </g>
          </g>
          <g id="Group_42">
            <title>Graphic_4</title>
            <g id="Graphic_43">
              <rect x="119.5705" y="40.014" width="5.129" height="30.643" fill="#595a58"/>
            </g>
          </g>
          <g id="Group_40">
            <title>Graphic_5</title>
            <g id="Graphic_41">
              <path d="M 133.2857 40.0137 L 138.7177 40.0137 L 146.4697 60.0997 C 147.3557 62.3767 148.2587 65.2927 148.2587 65.3597 L 148.3777 65.3597 C 148.3777 65.2927 149.2737 62.4357 150.1627 60.0997 L 157.6197 40.0137 L 162.5687 40.0137 L 150.7017 70.6567 L 145.6917 70.6567 Z" fill="#595a58"/>
            </g>
          </g>
          <g id="Group_38">
            <title>Graphic_6</title>
            <g id="Graphic_39">
              <path d="M 170.9732 40.0137 L 189.6982 40.0137 L 189.6982 44.1857 L 176.1022 44.1857 L 176.1022 52.5997 L 188.2662 52.5997 L 188.2662 56.6507 L 176.1022 56.6507 L 176.1022 66.4927 L 190.0002 66.4927 L 190.0002 70.6597 L 170.9732 70.6597 Z" fill="#595a58"/>
            </g>
          </g>
          <g id="Group_36">
            <title>Graphic_7</title>
            <g id="Graphic_37">
              <path d="M 209.9107 53.4883 C 214.2037 53.4883 216.0517 51.8753 216.0517 48.7173 C 216.0517 45.4883 214.0277 44.0023 209.6137 44.0023 L 205.5557 44.0023 L 205.5557 53.4843 Z M 200.4337 40.0133 L 210.0277 40.0133 C 217.1877 40.0133 221.2977 42.9273 221.2977 48.4783 C 221.2977 53.7283 217.4807 56.0563 212.8907 56.5333 L 212.8907 56.6463 C 213.5477 57.1193 214.6837 58.2593 216.5317 60.8203 L 223.8057 70.6563 L 217.9027 70.6563 L 211.6957 61.8983 C 208.6567 57.6623 207.9417 57.3023 206.1017 57.3023 L 205.5557 57.3023 L 205.5557 70.6603 L 200.4337 70.6603 Z" fill="#595a58"/>
            </g>
          </g>
          <g id="Group_34">
            <title>Graphic_8</title>
            <g id="Graphic_35">
              <path d="M 229.8208 68.1562 L 232.0938 64.5172 C 232.9258 65.1152 235.1838 67.0232 239.2428 67.0232 C 242.8838 67.0232 245.2658 65.4142 245.2658 62.7302 C 245.2658 59.5062 242.3518 58.6172 237.8718 56.5332 C 233.9378 54.7362 230.5938 52.5292 230.5938 47.6992 C 230.5938 42.3382 235.1838 39.4202 240.4928 39.4202 C 245.5088 39.4202 248.0708 41.0272 249.3908 41.9202 L 247.1758 45.5582 C 246.0398 44.7832 243.7228 43.5882 240.6758 43.5882 C 237.7618 43.5882 235.6058 44.8432 235.6058 47.4672 C 235.6058 50.3882 238.1688 51.2812 241.5088 52.7752 C 245.8128 54.6832 250.2268 56.8862 250.2268 62.4882 C 250.2268 67.8592 245.9298 71.1992 239.3088 71.1992 C 234.1758 71.1992 231.0668 69.2912 229.8208 68.1562 Z" fill="#595a58"/>
            </g>
          </g>
          <g id="Group_32">
            <title>Graphic_9</title>
            <g id="Graphic_33">
              <rect x="260.2895" y="40.014" width="5.125" height="30.643" fill="#595a58"/>
            </g>
          </g>
          <g id="Group_30">
            <title>Graphic_10</title>
            <g id="Graphic_31">
              <path d="M 283.4263 44.25 L 274.0553 44.25 L 274.0553 40.018 L 297.9733 40.018 L 297.9733 44.252 L 288.6143 44.252 L 288.6143 70.664 L 283.4263 70.664 Z" fill="#595a58"/>
            </g>
          </g>
          <g id="Group_28">
            <title>Graphic_11</title>
            <g id="Graphic_29">
              <path d="M 314.3677 59.0312 L 303.5787 40.0132 L 309.1727 40.0132 L 317.0477 54.5622 L 317.1647 54.5622 L 324.9227 40.0132 L 329.9337 40.0132 L 319.4927 59.0312 L 319.4927 70.6602 L 314.3637 70.6602 L 314.3637 59.0312 Z" fill="#595a58"/>
            </g>
          </g>
          <g id="Group_26">
            <title>Graphic_12</title>
            <g id="Graphic_27">
              <path d="M 68.8945 108.0859 C 68.8945 101.7619 65.3765 96.2789 58.2795 96.2789 C 51.1875 96.2789 47.4865 101.7109 47.4865 107.9099 C 47.4865 114.2289 51.0645 119.6579 58.1645 119.6579 C 65.2555 119.6499 68.8945 114.3459 68.8945 108.0859 M 41.9995 108.0859 C 41.9995 99.6739 47.9065 92.1089 58.1605 92.1089 C 68.4175 92.1089 74.3225 99.4919 74.3225 107.9019 C 74.3225 116.3109 68.5375 123.8849 58.2755 123.8849 C 48.0215 123.8849 41.9995 116.4899 41.9995 108.0859" fill="#595a58"/>
            </g>
          </g>
          <g id="Group_24">
            <title>Graphic_13</title>
            <g id="Graphic_25">
              <path d="M 83.3814 92.6992 L 101.8074 92.6992 L 101.8074 96.8692 L 88.5064 96.8692 L 88.5064 105.5822 L 100.2504 105.5822 L 100.2504 109.6872 L 88.5064 109.6872 L 88.5064 123.3492 L 83.3814 123.3492 Z" fill="#595a58"/>
            </g>
          </g>
          <g id="Group_22">
            <title>Graphic_14</title>
            <g id="Graphic_23">
              <path d="M 42 160.6504 C 42 152.1274 47.844 144.7954 58.215 144.7954 C 62.334 144.7954 65.074 145.6934 67.459 147.2364 L 65.016 151.0524 C 63.227 149.8574 61.08 149.0844 58.105 149.0844 C 51.121 149.0844 47.482 153.9204 47.482 160.4824 C 47.482 167.2204 50.943 172.2914 58.215 172.2914 C 61.678 172.2914 64.002 171.1624 65.795 169.8454 L 67.939 173.4744 C 66.268 174.9004 62.695 176.5764 58.039 176.5764 C 47.604 176.5804 42 169.1854 42 160.6504 Z" fill="#595a58"/>
            </g>
          </g>
          <g id="Group_20">
            <title>Graphic_15</title>
            <g id="Graphic_21">
              <path d="M 92.981 165.1895 L 89.344 155.8265 C 88.333 153.1425 87.436 150.2755 87.436 150.2755 L 87.319 150.2755 C 86.366 153.2635 85.411 155.8265 85.411 155.8265 L 81.831 165.1895 Z M 85.053 145.3925 L 90.067 145.3925 L 102.528 176.0445 L 97.163 176.0445 L 94.536 169.3615 L 80.282 169.3615 L 77.788 176.0445 L 72.701 176.0445 Z" fill="#595a58"/>
            </g>
          </g>
          <g id="Group_18">
            <title>Graphic_16</title>
            <g id="Graphic_19">
              <path d="M 110.0278 145.3926 L 115.2878 145.3926 L 115.2878 171.8616 L 128.2228 171.8616 L 128.2228 176.0446 L 110.0318 176.0446 L 110.0318 145.3926 Z" fill="#595a58"/>
            </g>
          </g>
          <g id="Group_16">
            <title>Graphic_17</title>
            <g id="Graphic_17">
              <rect x="136.9865" y="145.393" width="5.121" height="30.652" fill="#595a58"/>
            </g>
          </g>
          <g id="Group_14">
            <title>Graphic_18</title>
            <g id="Graphic_15">
              <path d="M 153.4946 145.3926 L 171.9326 145.3926 L 171.9326 149.5686 L 158.6316 149.5686 L 158.6316 158.2676 L 170.3756 158.2676 L 170.3756 162.3846 L 158.6316 162.3846 L 158.6316 176.0446 L 153.4946 176.0446 Z" fill="#595a58"/>
            </g>
          </g>
          <g id="Group_12">
            <title>Graphic_19</title>
            <g id="Graphic_13">
              <path d="M 205.438 160.7793 C 205.438 154.4593 201.918 148.9703 194.821 148.9703 C 187.727 148.9703 184.022 154.3963 184.022 160.5993 C 184.022 166.9163 187.61 172.3423 194.7 172.3423 C 201.801 172.3453 205.438 167.0373 205.438 160.7793 M 178.545 160.7793 C 178.545 152.3653 184.444 144.7953 194.7 144.7953 C 204.958 144.7953 210.864 152.1893 210.864 160.5993 C 210.864 169.0133 205.079 176.5803 194.821 176.5803 C 184.569 176.5803 178.545 169.1853 178.545 160.7793" fill="#595a58"/>
            </g>
          </g>
          <g id="Group_10">
            <title>Graphic_20</title>
            <g id="Graphic_11">
              <path d="M 228.0357 158.873 C 232.3287 158.873 234.1767 157.256 234.1767 154.096 C 234.1767 150.873 232.1447 149.385 227.7307 149.385 L 223.6807 149.385 L 223.6807 158.865 Z M 218.5517 145.393 L 228.1527 145.393 C 235.3127 145.393 239.4227 148.314 239.4227 153.853 C 239.4227 159.107 235.5987 161.428 231.0157 161.908 L 231.0157 162.025 C 231.6647 162.498 232.7937 163.643 234.6487 166.197 L 241.9227 176.037 L 236.0277 176.037 L 229.8127 167.271 C 226.7737 163.037 226.0587 162.674 224.2117 162.674 L 223.6727 162.674 L 223.6727 176.037 L 218.5437 176.037 L 218.5437 145.393 Z" fill="#595a58"/>
            </g>
          </g>
          <g id="Group_8">
            <title>Graphic_21</title>
            <g id="Graphic_9">
              <path d="M 249.4341 145.3926 L 254.6251 145.3926 L 268.1641 163.9356 C 269.8991 166.3766 271.2661 169.0056 271.3251 169.0056 L 271.4421 169.0056 C 271.2071 166.6226 271.2071 164.2906 271.2071 164.2906 L 271.2071 145.3846 L 275.8561 145.3846 L 275.8561 176.0446 L 271.2071 176.0446 L 256.8361 156.3656 C 255.4071 154.2676 254.0861 151.8266 254.0861 151.8266 L 254.0281 151.8266 C 254.2041 153.8536 254.2041 155.7596 254.2041 155.7596 L 254.2041 176.0446 L 249.4341 176.0446 Z" fill="#595a58"/>
            </g>
          </g>
          <g id="Group_6">
            <title>Graphic_22</title>
            <g id="Graphic_7">
              <rect x="287.1845" y="145.393" width="5.129" height="30.652" fill="#595a58"/>
            </g>
          </g>
          <g id="Group_4">
            <title>Graphic_23</title>
            <g id="Graphic_5">
              <path d="M 320.4575 165.1895 L 316.8205 155.8265 C 315.7935 153.1425 314.9065 150.2755 314.9065 150.2755 L 314.7975 150.2755 C 313.8445 153.2635 312.8875 155.8265 312.8875 155.8265 L 309.3015 165.1895 Z M 312.5235 145.3925 L 317.5275 145.3925 L 330.0005 176.0445 L 324.6255 176.0445 L 322.0085 169.3615 L 307.7505 169.3615 L 305.2425 176.0445 L 300.1805 176.0445 Z" fill="#595a58"/>
            </g>
          </g>
        </g>
      </g>
    </g>
  </g>
</svg>
