<svg id="mermaid-1622662108704" width="100%" xmlns="http://www.w3.org/2000/svg" height="903.203125" style="max-width: 662.50390625px;" viewBox="0 0 662.50390625 903.203125"><style>#mermaid-1622662108704{font-family:"trebuchet ms",verdana,arial,sans-serif;font-size:16px;fill:#333;}#mermaid-1622662108704 .error-icon{fill:#552222;}#mermaid-1622662108704 .error-text{fill:#552222;stroke:#552222;}#mermaid-1622662108704 .edge-thickness-normal{stroke-width:2px;}#mermaid-1622662108704 .edge-thickness-thick{stroke-width:3.5px;}#mermaid-1622662108704 .edge-pattern-solid{stroke-dasharray:0;}#mermaid-1622662108704 .edge-pattern-dashed{stroke-dasharray:3;}#mermaid-1622662108704 .edge-pattern-dotted{stroke-dasharray:2;}#mermaid-1622662108704 .marker{fill:#333333;stroke:#333333;}#mermaid-1622662108704 .marker.cross{stroke:#333333;}#mermaid-1622662108704 svg{font-family:"trebuchet ms",verdana,arial,sans-serif;font-size:16px;}#mermaid-1622662108704 .entityBox{fill:#ECECFF;stroke:#9370DB;}#mermaid-1622662108704 .attributeBoxOdd{fill:#ffffff;stroke:#9370DB;}#mermaid-1622662108704 .attributeBoxEven{fill:#f2f2f2;stroke:#9370DB;}#mermaid-1622662108704 .relationshipLabelBox{fill:hsl(80,100%,96.2745098039%);opacity:0.7;background-color:hsl(80,100%,96.2745098039%);}#mermaid-1622662108704 .relationshipLabelBox rect{opacity:0.5;}#mermaid-1622662108704 .relationshipLine{stroke:#333333;}#mermaid-1622662108704:root{--mermaid-font-family:"trebuchet ms",verdana,arial,sans-serif;}#mermaid-1622662108704 er{fill:apa;}</style><g></g><defs><marker id="ONLY_ONE_START" refX="0" refY="9" markerWidth="18" markerHeight="18" orient="auto"><path stroke="gray" fill="none" d="M9,0 L9,18 M15,0 L15,18"></path></marker></defs><defs><marker id="ONLY_ONE_END" refX="18" refY="9" markerWidth="18" markerHeight="18" orient="auto"><path stroke="gray" fill="none" d="M3,0 L3,18 M9,0 L9,18"></path></marker></defs><defs><marker id="ZERO_OR_ONE_START" refX="0" refY="9" markerWidth="30" markerHeight="18" orient="auto"><circle stroke="gray" fill="white" cx="21" cy="9" r="6"></circle><path stroke="gray" fill="none" d="M9,0 L9,18"></path></marker></defs><defs><marker id="ZERO_OR_ONE_END" refX="30" refY="9" markerWidth="30" markerHeight="18" orient="auto"><circle stroke="gray" fill="white" cx="9" cy="9" r="6"></circle><path stroke="gray" fill="none" d="M21,0 L21,18"></path></marker></defs><defs><marker id="ONE_OR_MORE_START" refX="18" refY="18" markerWidth="45" markerHeight="36" orient="auto"><path stroke="gray" fill="none" d="M0,18 Q 18,0 36,18 Q 18,36 0,18 M42,9 L42,27"></path></marker></defs><defs><marker id="ONE_OR_MORE_END" refX="27" refY="18" markerWidth="45" markerHeight="36" orient="auto"><path stroke="gray" fill="none" d="M3,9 L3,27 M9,18 Q27,0 45,18 Q27,36 9,18"></path></marker></defs><defs><marker id="ZERO_OR_MORE_START" refX="18" refY="18" markerWidth="57" markerHeight="36" orient="auto"><circle stroke="gray" fill="white" cx="48" cy="18" r="6"></circle><path stroke="gray" fill="none" d="M0,18 Q18,0 36,18 Q18,36 0,18"></path></marker></defs><defs><marker id="ZERO_OR_MORE_END" refX="39" refY="18" markerWidth="57" markerHeight="36" orient="auto"><circle stroke="gray" fill="white" cx="9" cy="18" r="6"></circle><path stroke="gray" fill="none" d="M21,18 Q39,0 57,18 Q39,36 21,18"></path></marker></defs><path class="er relationshipLine" d="M79.0234375,65.03125L79.0234375,73.36458333333333C79.0234375,81.69791666666667,79.0234375,98.36458333333333,79.0234375,115.03125C79.0234375,131.69791666666666,79.0234375,148.36458333333334,79.0234375,156.69791666666666L79.0234375,165.03125" stroke="gray" fill="none" stroke-dasharray="8,8" marker-end="url(#ONE_OR_MORE_END)" marker-start="url(#ONLY_ONE_START)"></path><path class="er relationshipLine" d="M79.0234375,240.03125L79.0234375,248.36458333333334C79.0234375,256.6979166666667,79.0234375,273.3645833333333,91.03369031907634,290.03125C103.0439431381527,306.6979166666667,127.06444877630538,323.3645833333333,139.07470159538173,331.6979166666667L151.08495441445808,340.03125" stroke="gray" fill="none" stroke-dasharray="8,8" marker-end="url(#ONLY_ONE_END)" marker-start="url(#ONLY_ONE_START)"></path><path class="er relationshipLine" d="M288.046875,225.046875L288.046875,235.87760416666666C288.046875,246.70833333333334,288.046875,268.3697916666667,276.03662218092364,287.5338541666667C264.02636936184734,306.6979166666667,240.0058637236946,323.3645833333333,227.99561090461827,331.6979166666667L215.98535808554192,340.03125" stroke="gray" fill="none" stroke-dasharray="8,8" marker-end="url(#ONE_OR_MORE_END)" marker-start="url(#ONLY_ONE_START)"></path><path class="er relationshipLine" d="M183.53515625,385.0625L183.53515625,393.3958333333333C183.53515625,401.7291666666667,183.53515625,418.3958333333333,183.53515625,435.0625C183.53515625,451.7291666666667,183.53515625,468.3958333333333,183.53515625,476.7291666666667L183.53515625,485.0625" stroke="gray" fill="none" stroke-dasharray="8,8" marker-end="url(#ONE_OR_MORE_END)" marker-start="url(#ONLY_ONE_START)"></path><path class="er relationshipLine" d="M230.10917047107304,385.0625L247.34683476756086,393.3958333333333C264.5844990640487,401.7291666666667,299.05982765702436,418.3958333333333,316.2974919535122,438.8151041666667C333.53515625,459.234375,333.53515625,483.40625,333.53515625,507.578125C333.53515625,531.75,333.53515625,555.921875,337.9899953189386,576.3411458333334C342.4448343878773,596.7604166666666,351.3545125257545,613.4270833333334,355.80935159469317,621.7604166666666L360.2641906636318,630.09375" stroke="gray" fill="none" stroke-dasharray="8,8" marker-end="url(#ONE_OR_MORE_END)" marker-start="url(#ONLY_ONE_START)"></path><path class="er relationshipLine" d="M233.53515625,522.08125L266.8684895833333,531.75C300.2018229166667,541.4187499999999,366.8684895833333,560.75625,395.746983847728,578.7583333333333C424.6254781121227,596.7604166666666,415.7157999742455,613.4270833333334,411.26096090530683,621.7604166666666L406.8061218363682,630.09375" stroke="gray" fill="none" stroke-dasharray="8,8" marker-end="url(#ONE_OR_MORE_END)" marker-start="url(#ONLY_ONE_START)"></path><path class="er relationshipLine" d="M136.96114202892696,385.0625L119.72347773243912,393.3958333333333C102.4858134359513,401.7291666666667,68.01048484297566,418.3958333333333,50.77282054648782,438.8151041666667C33.53515625,459.234375,33.53515625,483.40625,33.53515625,507.578125C33.53515625,531.75,33.53515625,555.921875,33.53515625,583.5963541666666C33.53515625,611.2708333333334,33.53515625,642.4479166666666,33.53515625,673.625C33.53515625,704.8020833333334,33.53515625,735.9791666666666,71.03515625,762.8890861742424C108.53515625,789.7990056818181,183.53515625,812.4417613636364,221.03515625,823.7631392045454L258.53515625,835.0845170454545" stroke="gray" fill="none" stroke-dasharray="8,8" marker-end="url(#ONE_OR_MORE_END)" marker-start="url(#ONLY_ONE_START)"></path><path class="er relationshipLine" d="M183.53515625,530.09375L183.53515625,538.4270833333334C183.53515625,546.7604166666666,183.53515625,563.4270833333334,183.53515625,587.3489583333334C183.53515625,611.2708333333334,183.53515625,642.4479166666666,183.53515625,673.625C183.53515625,704.8020833333334,183.53515625,735.9791666666666,196.08181413400612,759.9010416666666C208.6284720180123,783.8229166666666,233.7217877860246,800.4895833333334,246.26844567003073,808.8229166666666L258.8151035540369,817.15625" stroke="gray" fill="none" stroke-dasharray="8,8" marker-end="url(#ONE_OR_MORE_END)" marker-start="url(#ONLY_ONE_START)"></path><path class="er relationshipLine" d="M383.53515625,717.15625L383.53515625,725.4895833333334C383.53515625,733.8229166666666,383.53515625,750.4895833333334,376.0071615195963,767.15625C368.47916678919256,783.8229166666666,353.42317732838524,800.4895833333334,345.89518259798155,808.8229166666666L338.36718786757785,817.15625" stroke="gray" fill="none" stroke-dasharray="8,8" marker-end="url(#ONE_OR_MORE_END)" marker-start="url(#ONLY_ONE_START)"></path><path class="er relationshipLine" d="M588.01953125,706.6484375L588.01953125,716.7330729166666C588.01953125,726.8177083333334,588.01953125,746.9869791666666,549.7721354166666,768.4333598598145C511.5247395833333,789.8797405529622,435.0299479166667,812.6032311059242,396.7825520833333,823.9649763824053L358.53515625,835.3267216588863" stroke="gray" fill="none" stroke-dasharray="8,8" marker-end="url(#ONE_OR_MORE_END)" marker-start="url(#ONLY_ONE_START)"></path><g id="Collection" transform="translate(29.0234375,20 )"><rect class="er entityBox" fill="honeydew" fill-opacity="100%" stroke="gray" x="0" y="0" width="100" height="45.03125"></rect><text class="er entityLabel" id="entity-Collection" x="0" y="0" dominant-baseline="middle" text-anchor="middle" style="font-family: &quot;trebuchet ms&quot;, verdana, arial, sans-serif;; font-size: 12px" transform="translate(50,12.0078125)">Collection</text><rect class="er attributeBoxOdd" fill="honeydew" fill-opacity="100%" stroke="gray" x="0" y="24.015625" width="55.09375" height="21.015625"></rect><text class="er entityLabel" id="entity-Collection-attr-1-type" x="0" y="0" dominant-baseline="middle" text-anchor="left" style="font-family: &quot;trebuchet ms&quot;, verdana, arial, sans-serif;; font-size: 10.2px" transform="translate(5,34.5234375)">string</text><rect class="er attributeBoxOdd" fill="honeydew" fill-opacity="100%" stroke="gray" x="055.09375" y="24.015625" width="44.90625" height="21.015625"></rect><text class="er entityLabel" id="entity-Collection-attr-1-name" x="0" y="0" dominant-baseline="middle" text-anchor="left" style="font-family: &quot;trebuchet ms&quot;, verdana, arial, sans-serif;; font-size: 10.2px" transform="translate(60.09375,34.5234375)">ark</text></g><g id="CollectionObject" transform="translate(20,165.03125 )"><rect class="er entityBox" fill="honeydew" fill-opacity="100%" stroke="gray" x="0" y="0" width="118.046875" height="75"></rect><text class="er entityLabel" id="entity-CollectionObject" x="0" y="0" dominant-baseline="middle" text-anchor="middle" style="font-family: &quot;trebuchet ms&quot;, verdana, arial, sans-serif;; font-size: 12px" transform="translate(59.0234375,37.5)">CollectionObject</text></g><g id="Object" transform="translate(133.53515625,340.03125 )"><rect class="er entityBox" fill="honeydew" fill-opacity="100%" stroke="gray" x="0" y="0" width="100" height="45.03125"></rect><text class="er entityLabel" id="entity-Object" x="0" y="0" dominant-baseline="middle" text-anchor="middle" style="font-family: &quot;trebuchet ms&quot;, verdana, arial, sans-serif;; font-size: 12px" transform="translate(50,12.0078125)">Object</text><rect class="er attributeBoxOdd" fill="honeydew" fill-opacity="100%" stroke="gray" x="0" y="24.015625" width="55.09375" height="21.015625"></rect><text class="er entityLabel" id="entity-Object-attr-1-type" x="0" y="0" dominant-baseline="middle" text-anchor="left" style="font-family: &quot;trebuchet ms&quot;, verdana, arial, sans-serif;; font-size: 10.2px" transform="translate(5,34.5234375)">string</text><rect class="er attributeBoxOdd" fill="honeydew" fill-opacity="100%" stroke="gray" x="055.09375" y="24.015625" width="44.90625" height="21.015625"></rect><text class="er entityLabel" id="entity-Object-attr-1-name" x="0" y="0" dominant-baseline="middle" text-anchor="left" style="font-family: &quot;trebuchet ms&quot;, verdana, arial, sans-serif;; font-size: 10.2px" transform="translate(60.09375,34.5234375)">ark</text></g><g id="Owner" transform="translate(238.046875,180.015625 )"><rect class="er entityBox" fill="honeydew" fill-opacity="100%" stroke="gray" x="0" y="0" width="100" height="45.03125"></rect><text class="er entityLabel" id="entity-Owner" x="0" y="0" dominant-baseline="middle" text-anchor="middle" style="font-family: &quot;trebuchet ms&quot;, verdana, arial, sans-serif;; font-size: 12px" transform="translate(50,12.0078125)">Owner</text><rect class="er attributeBoxOdd" fill="honeydew" fill-opacity="100%" stroke="gray" x="0" y="24.015625" width="55.09375" height="21.015625"></rect><text class="er entityLabel" id="entity-Owner-attr-1-type" x="0" y="0" dominant-baseline="middle" text-anchor="left" style="font-family: &quot;trebuchet ms&quot;, verdana, arial, sans-serif;; font-size: 10.2px" transform="translate(5,34.5234375)">string</text><rect class="er attributeBoxOdd" fill="honeydew" fill-opacity="100%" stroke="gray" x="055.09375" y="24.015625" width="44.90625" height="21.015625"></rect><text class="er entityLabel" id="entity-Owner-attr-1-name" x="0" y="0" dominant-baseline="middle" text-anchor="left" style="font-family: &quot;trebuchet ms&quot;, verdana, arial, sans-serif;; font-size: 10.2px" transform="translate(60.09375,34.5234375)">ark</text></g><g id="Version" transform="translate(133.53515625,485.0625 )"><rect class="er entityBox" fill="honeydew" fill-opacity="100%" stroke="gray" x="0" y="0" width="100" height="45.03125"></rect><text class="er entityLabel" id="entity-Version" x="0" y="0" dominant-baseline="middle" text-anchor="middle" style="font-family: &quot;trebuchet ms&quot;, verdana, arial, sans-serif;; font-size: 12px" transform="translate(50,12.0078125)">Version</text><rect class="er attributeBoxOdd" fill="honeydew" fill-opacity="100%" stroke="gray" x="0" y="24.015625" width="37.890625" height="21.015625"></rect><text class="er entityLabel" id="entity-Version-attr-1-type" x="0" y="0" dominant-baseline="middle" text-anchor="left" style="font-family: &quot;trebuchet ms&quot;, verdana, arial, sans-serif;; font-size: 10.2px" transform="translate(5,34.5234375)">int</text><rect class="er attributeBoxOdd" fill="honeydew" fill-opacity="100%" stroke="gray" x="037.890625" y="24.015625" width="62.109375" height="21.015625"></rect><text class="er entityLabel" id="entity-Version-attr-1-name" x="0" y="0" dominant-baseline="middle" text-anchor="left" style="font-family: &quot;trebuchet ms&quot;, verdana, arial, sans-serif;; font-size: 10.2px" transform="translate(42.890625,34.5234375)">number</text></g><g id="File" transform="translate(333.53515625,630.09375 )"><rect class="er entityBox" fill="honeydew" fill-opacity="100%" stroke="gray" x="0" y="0" width="100" height="87.0625"></rect><text class="er entityLabel" id="entity-File" x="0" y="0" dominant-baseline="middle" text-anchor="middle" style="font-family: &quot;trebuchet ms&quot;, verdana, arial, sans-serif;; font-size: 12px" transform="translate(50,12.0078125)">File</text><rect class="er attributeBoxOdd" fill="honeydew" fill-opacity="100%" stroke="gray" x="0" y="24.015625" width="39.6953125" height="21.015625"></rect><text class="er entityLabel" id="entity-File-attr-1-type" x="0" y="0" dominant-baseline="middle" text-anchor="left" style="font-family: &quot;trebuchet ms&quot;, verdana, arial, sans-serif;; font-size: 10.2px" transform="translate(5,34.5234375)">string</text><rect class="er attributeBoxOdd" fill="honeydew" fill-opacity="100%" stroke="gray" x="039.6953125" y="24.015625" width="60.3046875" height="21.015625"></rect><text class="er entityLabel" id="entity-File-attr-1-name" x="0" y="0" dominant-baseline="middle" text-anchor="left" style="font-family: &quot;trebuchet ms&quot;, verdana, arial, sans-serif;; font-size: 10.2px" transform="translate(44.6953125,34.5234375)">filename</text><rect class="er attributeBoxEven" fill="honeydew" fill-opacity="100%" stroke="gray" x="0" y="45.03125" width="39.6953125" height="21.015625"></rect><text class="er entityLabel" id="entity-File-attr-2-type" x="0" y="0" dominant-baseline="middle" text-anchor="left" style="font-family: &quot;trebuchet ms&quot;, verdana, arial, sans-serif;; font-size: 10.2px" transform="translate(5,55.5390625)">string</text><rect class="er attributeBoxEven" fill="honeydew" fill-opacity="100%" stroke="gray" x="039.6953125" y="45.03125" width="60.3046875" height="21.015625"></rect><text class="er entityLabel" id="entity-File-attr-2-name" x="0" y="0" dominant-baseline="middle" text-anchor="left" style="font-family: &quot;trebuchet ms&quot;, verdana, arial, sans-serif;; font-size: 10.2px" transform="translate(44.6953125,55.5390625)">checksum</text><rect class="er attributeBoxOdd" fill="honeydew" fill-opacity="100%" stroke="gray" x="0" y="66.046875" width="39.6953125" height="21.015625"></rect><text class="er entityLabel" id="entity-File-attr-3-type" x="0" y="0" dominant-baseline="middle" text-anchor="left" style="font-family: &quot;trebuchet ms&quot;, verdana, arial, sans-serif;; font-size: 10.2px" transform="translate(5,76.5546875)">long</text><rect class="er attributeBoxOdd" fill="honeydew" fill-opacity="100%" stroke="gray" x="039.6953125" y="66.046875" width="60.3046875" height="21.015625"></rect><text class="er entityLabel" id="entity-File-attr-3-name" x="0" y="0" dominant-baseline="middle" text-anchor="left" style="font-family: &quot;trebuchet ms&quot;, verdana, arial, sans-serif;; font-size: 10.2px" transform="translate(44.6953125,76.5546875)">size</text></g><g id="Node" transform="translate(533.53515625,640.6015625 )"><rect class="er entityBox" fill="honeydew" fill-opacity="100%" stroke="gray" x="0" y="0" width="108.96875" height="66.046875"></rect><text class="er entityLabel" id="entity-Node" x="0" y="0" dominant-baseline="middle" text-anchor="middle" style="font-family: &quot;trebuchet ms&quot;, verdana, arial, sans-serif;; font-size: 12px" transform="translate(54.484375,12.0078125)">Node</text><rect class="er attributeBoxOdd" fill="honeydew" fill-opacity="100%" stroke="gray" x="0" y="24.015625" width="35.484375" height="21.015625"></rect><text class="er entityLabel" id="entity-Node-attr-1-type" x="0" y="0" dominant-baseline="middle" text-anchor="left" style="font-family: &quot;trebuchet ms&quot;, verdana, arial, sans-serif;; font-size: 10.2px" transform="translate(5,34.5234375)">int</text><rect class="er attributeBoxOdd" fill="honeydew" fill-opacity="100%" stroke="gray" x="035.484375" y="24.015625" width="73.484375" height="21.015625"></rect><text class="er entityLabel" id="entity-Node-attr-1-name" x="0" y="0" dominant-baseline="middle" text-anchor="left" style="font-family: &quot;trebuchet ms&quot;, verdana, arial, sans-serif;; font-size: 10.2px" transform="translate(40.484375,34.5234375)">node_number</text><rect class="er attributeBoxEven" fill="honeydew" fill-opacity="100%" stroke="gray" x="0" y="45.03125" width="35.484375" height="21.015625"></rect><text class="er entityLabel" id="entity-Node-attr-2-type" x="0" y="0" dominant-baseline="middle" text-anchor="left" style="font-family: &quot;trebuchet ms&quot;, verdana, arial, sans-serif;; font-size: 10.2px" transform="translate(5,55.5390625)">enum</text><rect class="er attributeBoxEven" fill="honeydew" fill-opacity="100%" stroke="gray" x="035.484375" y="45.03125" width="73.484375" height="21.015625"></rect><text class="er entityLabel" id="entity-Node-attr-2-name" x="0" y="0" dominant-baseline="middle" text-anchor="left" style="font-family: &quot;trebuchet ms&quot;, verdana, arial, sans-serif;; font-size: 10.2px" transform="translate(40.484375,55.5390625)">node_type</text></g><g id="Audit" transform="translate(258.53515625,817.15625 )"><rect class="er entityBox" fill="honeydew" fill-opacity="100%" stroke="gray" x="0" y="0" width="100" height="66.046875"></rect><text class="er entityLabel" id="entity-Audit" x="0" y="0" dominant-baseline="middle" text-anchor="middle" style="font-family: &quot;trebuchet ms&quot;, verdana, arial, sans-serif;; font-size: 12px" transform="translate(50,12.0078125)">Audit</text><rect class="er attributeBoxOdd" fill="honeydew" fill-opacity="100%" stroke="gray" x="0" y="24.015625" width="39.8125" height="21.015625"></rect><text class="er entityLabel" id="entity-Audit-attr-1-type" x="0" y="0" dominant-baseline="middle" text-anchor="left" style="font-family: &quot;trebuchet ms&quot;, verdana, arial, sans-serif;; font-size: 10.2px" transform="translate(5,34.5234375)">string</text><rect class="er attributeBoxOdd" fill="honeydew" fill-opacity="100%" stroke="gray" x="039.8125" y="24.015625" width="60.1875" height="21.015625"></rect><text class="er entityLabel" id="entity-Audit-attr-1-name" x="0" y="0" dominant-baseline="middle" text-anchor="left" style="font-family: &quot;trebuchet ms&quot;, verdana, arial, sans-serif;; font-size: 10.2px" transform="translate(44.8125,34.5234375)">checksum</text><rect class="er attributeBoxEven" fill="honeydew" fill-opacity="100%" stroke="gray" x="0" y="45.03125" width="39.8125" height="21.015625"></rect><text class="er entityLabel" id="entity-Audit-attr-2-type" x="0" y="0" dominant-baseline="middle" text-anchor="left" style="font-family: &quot;trebuchet ms&quot;, verdana, arial, sans-serif;; font-size: 10.2px" transform="translate(5,55.5390625)">enum</text><rect class="er attributeBoxEven" fill="honeydew" fill-opacity="100%" stroke="gray" x="039.8125" y="45.03125" width="60.1875" height="21.015625"></rect><text class="er entityLabel" id="entity-Audit-attr-2-name" x="0" y="0" dominant-baseline="middle" text-anchor="left" style="font-family: &quot;trebuchet ms&quot;, verdana, arial, sans-serif;; font-size: 10.2px" transform="translate(44.8125,55.5390625)">status</text></g><rect class="er relationshipLabelBox" x="79.0234375" y="115.03125" width="0" height="0" fill="white" fill-opacity="85%"></rect><text class="er relationshipLabel" id="rel1" x="79.0234375" y="115.03125" text-anchor="middle" dominant-baseline="middle" style="font-family: &quot;trebuchet ms&quot;, verdana, arial, sans-serif;; font-size: 12px"></text><rect class="er relationshipLabelBox" x="75.75086212158203" y="292.91229248046875" width="47.390625" height="14.015625" fill="white" fill-opacity="85%"></rect><text class="er relationshipLabel" id="rel2" x="99.44617462158203" y="299.92010498046875" text-anchor="middle" dominant-baseline="middle" style="font-family: &quot;trebuchet ms&quot;, verdana, arial, sans-serif;; font-size: 12px">Contains</text><rect class="er relationshipLabelBox" x="256.1825256347656" y="286.9351806640625" width="30.6875" height="14.015625" fill="white" fill-opacity="85%"></rect><text class="er relationshipLabel" id="rel3" x="271.5262756347656" y="293.9429931640625" text-anchor="middle" dominant-baseline="middle" style="font-family: &quot;trebuchet ms&quot;, verdana, arial, sans-serif;; font-size: 12px">Owns</text><rect class="er relationshipLabelBox" x="154.85546875" y="428.0546875" width="57.359375" height="14.015625" fill="white" fill-opacity="85%"></rect><text class="er relationshipLabel" id="rel4" x="183.53515625" y="435.0625" text-anchor="middle" dominant-baseline="middle" style="font-family: &quot;trebuchet ms&quot;, verdana, arial, sans-serif;; font-size: 12px">consists of</text><rect class="er relationshipLabelBox" x="304.2440490722656" y="476.87841796875" width="57.359375" height="14.015625" fill="white" fill-opacity="85%"></rect><text class="er relationshipLabel" id="rel5" x="332.9237365722656" y="483.88623046875" text-anchor="middle" dominant-baseline="middle" style="font-family: &quot;trebuchet ms&quot;, verdana, arial, sans-serif;; font-size: 12px">consists of</text><rect class="er relationshipLabelBox" x="316.5931701660156" y="549.4097290039062" width="57.375" height="14.015625" fill="white" fill-opacity="85%"></rect><text class="er relationshipLabel" id="rel6" x="345.2806701660156" y="556.4175415039062" text-anchor="middle" dominant-baseline="middle" style="font-family: &quot;trebuchet ms&quot;, verdana, arial, sans-serif;; font-size: 12px">consists of</text><rect class="er relationshipLabelBox" x="33.53515625" y="654.8917846679688" width="0" height="0" fill="white" fill-opacity="85%"></rect><text class="er relationshipLabel" id="rel7" x="33.53515625" y="654.8917846679688" text-anchor="middle" dominant-baseline="middle" style="font-family: &quot;trebuchet ms&quot;, verdana, arial, sans-serif;; font-size: 12px"></text><rect class="er relationshipLabelBox" x="183.5897674560547" y="688.8300170898438" width="0" height="0" fill="white" fill-opacity="85%"></rect><text class="er relationshipLabel" id="rel8" x="183.5897674560547" y="688.8300170898438" text-anchor="middle" dominant-baseline="middle" style="font-family: &quot;trebuchet ms&quot;, verdana, arial, sans-serif;; font-size: 12px"></text><rect class="er relationshipLabelBox" x="373.376708984375" y="772.447265625" width="0" height="0" fill="white" fill-opacity="85%"></rect><text class="er relationshipLabel" id="rel9" x="373.376708984375" y="772.447265625" text-anchor="middle" dominant-baseline="middle" style="font-family: &quot;trebuchet ms&quot;, verdana, arial, sans-serif;; font-size: 12px"></text><rect class="er relationshipLabelBox" x="492.5393981933594" y="793.2008056640625" width="0" height="0" fill="white" fill-opacity="85%"></rect><text class="er relationshipLabel" id="rel10" x="492.5393981933594" y="793.2008056640625" text-anchor="middle" dominant-baseline="middle" style="font-family: &quot;trebuchet ms&quot;, verdana, arial, sans-serif;; font-size: 12px"></text></svg>